# xmcd
#
# Track frame offsets:
#	150
#	13895
#	32702
#	47570
#	72391
#	91024
#	111826
#	125038
#	142051
#	157097
#	169117
#	184829
#	201300
#	212872
#	228287
#
# Disc length: 3312 seconds
#
# Revision: 1
# Processed by: cddbd v1.5.2PL0 Copyright (c) Steve Scherf et al.
# Submitted via: EasyCDDAExtractor 15.3.0.1
#
DISCID=dd0cee0f
DTITLE=Various Artist - Star Maker's Spectacular 30 Year Journey 1979-2009, C
DTITLE=d 2
DYEAR=2009
DGENRE=Country
TTITLE0=Tanta Self - I don't do Floors
TTITLE1=Darren Coggan - The Dream
TTITLE2=Lyn Bowtell - The One You Love
TTITLE3=Kate Ballantyne - Who's to Blame
TTITLE4=Brendon Walmsley - Rose and Rodeo
TTITLE5=Grant Richardson - Hughie
TTITLE6=Kylie Sackley - Love's Like a Train
TTITLE7=Kieran Lancini - A Matter of Time
TTITLE8=Todd Willams - Falling Down
TTITLE9=Travis Collins - Bridge that you Won't Burn
TTITLE10=Samantha McClymont - Cookin' in my Kitchen
TTITLE11=Cat Southern - Last First Kiss
TTITLE12=Kirsty-Lee Akers - Little Things
TTITLE13=Talia Wittmann - Reckless Side of Me
TTITLE14=Beccy Cole and Travis Collins - I am Australian
EXTD=ID3G:   2 YEAR: 2009
EXTT0=
EXTT1=
EXTT2=
EXTT3=
EXTT4=
EXTT5=
EXTT6=
EXTT7=
EXTT8=
EXTT9=
EXTT10=
EXTT11=
EXTT12=
EXTT13=
EXTT14=
PLAYORDER=
